<?xml version="1.0" encoding="utf-8"?>
<svg ref="root" version="1.1" id="Layer_1" x="0px" y="0px" width="17.469px" height="17.474px" viewBox="-24.47 13.27 17.469 17.474" enableBackground="new -24.47 13.27 17.469 17.474">
    <path d="M16,0C7.163,0,0,7.163,0,16c0,8.836,7.163,16,16,16c8.838,0,16-7.164,16-16C32,7.163,24.837,0,16,0z M16,29.5C8.544,29.5,2.5,23.455,2.5,16C2.5,8.543,8.544,2.5,16,2.5c7.457,0,13.5,6.043,13.5,13.5C29.5,23.455,23.457,29.5,16,29.5z"
    />
    <g id="WO24ks_1_"></g>
    <g>
        <path
                d="M-7.001,20.029c0,1.316,0,2.634,0,3.95c-0.002,0.014-0.008,0.022-0.008,0.035c-0.01,0.395-0.014,0.786-0.029,1.18
						c-0.018,0.365-0.037,0.729-0.073,1.096c-0.052,0.508-0.171,1.002-0.363,1.476c-0.455,1.122-1.233,1.937-2.338,2.435
						c-0.664,0.3-1.369,0.438-2.092,0.475c-0.603,0.031-1.205,0.041-1.81,0.061c-0.014,0-0.024,0.007-0.037,0.009
						c-1.322,0-2.646,0-3.969,0c-0.011-0.002-0.021-0.009-0.033-0.009c-0.461-0.012-0.924-0.021-1.385-0.035
						c-0.439-0.016-0.876-0.049-1.309-0.128c-0.538-0.103-1.057-0.265-1.535-0.527c-0.93-0.514-1.604-1.262-2.005-2.249
						c-0.254-0.627-0.378-1.279-0.416-1.949c-0.029-0.518-0.039-1.037-0.058-1.557c-0.002-0.068-0.006-0.14-0.009-0.207
						c0-1.384,0-2.769,0-4.151c0.002-0.011,0.007-0.022,0.007-0.034c0.006-0.287,0.01-0.573,0.019-0.86
						c0.014-0.441,0.028-0.884,0.082-1.323c0.057-0.464,0.156-0.918,0.322-1.356c0.433-1.149,1.202-1.99,2.31-2.514
						c0.684-0.322,1.414-0.466,2.164-0.507c0.518-0.029,1.035-0.039,1.552-0.058c0.068-0.002,0.136-0.006,0.203-0.009
						c1.383,0,2.767,0,4.151,0c0.011,0.002,0.021,0.007,0.033,0.007c0.369,0.01,0.738,0.017,1.105,0.028
						c0.385,0.013,0.77,0.031,1.148,0.082c0.457,0.062,0.901,0.163,1.332,0.331c1.186,0.464,2.031,1.28,2.533,2.451
						c0.272,0.64,0.399,1.313,0.438,2.005c0.029,0.604,0.041,1.208,0.061,1.812C-7.009,20-7.003,20.014-7.001,20.029z M-22.892,22.004
						c-0.003,0-0.006,0-0.01,0c0.009,0.906,0.014,1.812,0.028,2.719c0.007,0.451,0.021,0.904,0.073,1.354
						c0.037,0.322,0.102,0.641,0.21,0.947c0.306,0.871,0.888,1.476,1.751,1.804c0.459,0.175,0.938,0.246,1.426,0.272
						c0.676,0.041,1.354,0.057,2.031,0.059c0.594,0.002,1.188,0.002,1.782,0.002c0.625-0.001,1.25-0.001,1.875-0.01
						c0.41-0.004,0.82-0.019,1.229-0.028c0.379-0.013,0.759-0.034,1.134-0.101c0.394-0.068,0.772-0.181,1.122-0.373
						c0.636-0.354,1.078-0.869,1.33-1.555c0.168-0.455,0.246-0.931,0.271-1.412c0.027-0.582,0.041-1.166,0.058-1.748
						c0.006-0.278,0.004-0.561,0.004-0.84c0-0.753,0.002-1.505-0.004-2.258c-0.002-0.603-0.01-1.204-0.025-1.805
						c-0.01-0.361-0.033-0.723-0.062-1.082c-0.033-0.385-0.121-0.759-0.266-1.117c-0.273-0.691-0.746-1.203-1.41-1.534
						c-0.465-0.232-0.967-0.34-1.48-0.378c-0.442-0.033-0.887-0.05-1.327-0.063c-0.402-0.012-0.804-0.012-1.205-0.013
						c-0.562-0.002-1.127-0.003-1.69,0c-0.875,0.005-1.75,0.01-2.625,0.026c-0.377,0.007-0.752,0.035-1.127,0.067
						c-0.354,0.03-0.699,0.11-1.031,0.236c-0.822,0.311-1.395,0.875-1.714,1.694c-0.18,0.462-0.261,0.945-0.283,1.438
						c-0.029,0.632-0.047,1.267-0.057,1.899C-22.898,20.806-22.892,21.406-22.892,22.004z"
        />
        <path
                fill="#FFFFFF"
                d="M13.856,7.354c-0.067,0.003-0.135,0.006-0.203,0.009c-0.519,0.02-1.036,0.028-1.552,0.058
						c-0.75,0.042-1.48,0.185-2.164,0.507C8.829,8.45,8.06,9.291,7.627,10.438c-0.166,0.438-0.265,0.893-0.322,1.356
						c-0.054,0.438-0.067,0.881-0.082,1.323c-0.009,0.286-0.013,0.573-0.019,0.86c0,0.012-0.005,0.023-0.007,0.034
						c0-2.22,0-4.438,0-6.659C9.417,7.354,11.636,7.354,13.856,7.354z"
        />
        <path
                d="M-15.731,17.519c2.461-0.007,4.502,2.008,4.482,4.523c-0.021,2.464-2.037,4.469-4.529,4.447
						c-2.479-0.022-4.492-2.066-4.443-4.578C-20.173,19.479-18.178,17.51-15.731,17.519z M-18.646,22.002c0,1.602,1.3,2.908,2.893,2.912
						c1.613,0.004,2.92-1.293,2.928-2.896c0.009-1.618-1.293-2.901-2.863-2.926C-17.327,19.068-18.648,20.394-18.646,22.002z"
        />
        <path
                d="M-10.023,17.342c0,0.583-0.472,1.05-1.056,1.048c-0.58-0.003-1.045-0.47-1.045-1.049s0.476-1.052,1.051-1.05
						C-10.493,16.292-10.023,16.761-10.023,17.342z"
        />
    </g>
</svg>
