<svg viewBox="0 0 660 111" fill="none" xmlns="http://www.w3.org/2000/svg">
	<g opacity="0.5">
		<path opacity="0.8" d="M86.6 50.1C86.8 60 83 67.8 74 72.1C62.8 77.5 52.4 75.3999 43.3 66.8999C30.3 77.1999 16.3 77.4 6.9 67.5C-1.5 58.7 -1.7 43.7 6.4 34.7C14.6 25.6 28.9 24.1 38.8 31.7L31.7 39.5C21.1 34.7 11.7 40.1 12.1 50.7C12.3 58.2 17.8 63.7999 25 63.7999C32.8 63.7999 38.6 57.8999 38.6 57.8999C38.6 57.8999 37.8 53.9999 37.9 51.2999C38.1 45.2999 39.6 39.9 43.4 35.1C53.7 22.2 78.4 24 84.8 41.1C78.7 41.3 72.8 40.4 67.1 38.1C64.2 36.9 61.1 36.5 58.2 38.2C51.1 41.2 48 47.4 50 54.5C52 61.5 57.5 65.1 64.7 64.1C70.3 63.4 76.1 58 75.5 49.1C79.1 49.1 82.8 49.8 86.6 50.1Z" fill="white"/>
		<path opacity="0.5" d="M518.4 101.8C517.1 103.2 515.3 104 513.4 104C511.6 104 509.9 103.3 508.6 102.1C506.8 100.4 506.8 98.6998 506.8 94.3998C506.8 90.0998 506.8 88.3998 508.6 86.6998C509.9 85.3998 511.6 84.7998 513.4 84.7998C516.8 84.7998 519.4 86.9998 520 90.2998H518.5C517.9 87.6998 516 85.9998 513.4 85.9998C512 85.9998 510.7 86.4998 509.8 87.4998C508.4 88.8998 508.3 90.2998 508.3 94.3998C508.3 98.4998 508.4 99.8998 509.8 101.3C510.8 102.3 512.1 102.8 513.4 102.8C514.9 102.8 516.4 102.2 517.4 101C518.2 99.9998 518.6 98.8998 518.6 97.1998V95.4998H513.5V94.1998H520.1V97.2998C520 99.1998 519.5 100.6 518.4 101.8Z" fill="white"/>
		<path opacity="0.5" d="M532.2 86.0998H526.5V93.7998H532.2C534.7 93.7998 536.4 92.5998 536.4 89.9998C536.4 87.2998 534.6 86.0998 532.2 86.0998ZM536.4 103.8L531.8 95.0998H526.5V103.8H525V84.7998H532.3C535.4 84.7998 537.8 86.5998 537.8 89.8998C537.8 92.6998 536.1 94.5998 533.4 94.9998L538 103.8C538.1 103.8 536.4 103.8 536.4 103.8Z" fill="white"/>
		<path opacity="0.5" d="M547.9 86.6998L543.9 97.8998H551.9L547.9 86.6998ZM554.1 103.8L552.4 99.1998H543.5L541.8 103.8H540.2L547.3 84.7998H548.6L555.7 103.8H554.1Z" fill="white"/>
		<path opacity="0.5" d="M571.5 103.8L560.5 87.2998V103.8H559V84.7998H560.5L571.5 101.3V84.7998H573V103.8H571.5Z" fill="white"/>
		<path opacity="0.5" d="M589.1 87.5998C588 86.4998 586.5 86.0998 585 86.0998H580.4V102.5H585C586.5 102.5 588 102.2 589.1 101C590.6 99.4998 590.5 96.0998 590.5 93.9998C590.6 91.8998 590.7 89.0998 589.1 87.5998ZM590.2 102.1C589.1 103.2 587.4 103.8 585.4 103.8H579V84.7998H585.4C587.4 84.7998 589.1 85.3998 590.2 86.4998C592.1 88.3998 592.1 91.3998 592.1 93.9998C592 96.5998 592.1 100.1 590.2 102.1Z" fill="white"/>
	</g>
	<path d="M600.2 84.8H596.5V103.8H608.9V100.5H600.2V84.8Z" fill="white"/>
	<path d="M615.3 92.5001L611.7 84.8H607.6L613.4 96.0001V103.8H617.1V96.0001L622.9 84.8H618.8L615.3 92.5001Z" fill="white"/>
	<path d="M631.4 84.5999C629.2 84.5999 627.5 85.3999 626.2 86.6999C624.2 88.5999 624.3 90.9998 624.3 94.2998C624.3 97.5998 624.3 99.9998 626.2 101.9C627.5 103.3 629.2 104 631.4 104C633.6 104 635.3 103.2 636.6 101.9C638.5 99.9998 638.5 97.5998 638.5 94.2998C638.5 90.9998 638.5 88.5999 636.6 86.6999C635.2 85.2999 633.6 84.5999 631.4 84.5999ZM633.8 99.5999C633.3 100.2 632.4 100.6 631.4 100.6C630.4 100.6 629.5 100.2 629 99.5999C628.3 98.7999 628.1 97.9998 628.1 94.2998C628.1 90.6998 628.3 89.7998 629 88.9998C629.5 88.3998 630.4 87.9998 631.4 87.9998C632.4 87.9998 633.3 88.3998 633.8 88.9998C634.5 89.7998 634.7 90.5998 634.7 94.2998C634.7 97.8998 634.5 98.7999 633.8 99.5999Z" fill="white"/>
	<path d="M653.2 96.4001L645.6 84.8H642.3V103.8H646V92.1001L653.6 103.8H657V84.8H653.2V96.4001Z" fill="white"/>
	<path d="M653.8 50.3999C652.8 50.4999 651.8 50.4999 650.8 50.4999C631 51.1999 611.2 52.1999 591.4 53.7999C570.4 55.3999 549.6 57.5999 528.9 61.2999C517.3 63.3999 505.8 66.0999 494.3 69.4999C494 66.5999 493.9 63.8999 493.5 61.2999C491.6 49.4999 488.2 47.6999 477.4 53.0999C474.3 54.5999 471.3 56.3999 468.2 58.0999C467.2 58.5999 466.1 59.2999 465 58.2999C463.9 57.2999 464.4 56.0999 464.8 54.9999C465.4 53.5999 466 52.2999 466.8 50.9999C470.8 44.4999 477.1 40.7999 484 37.9999C487 36.8999 490 35.9999 493.2 37.4999C495.6 38.5999 497.5 37.3999 498.5 35.1999C499.6 32.6999 498.7 30.6999 496.3 29.2999C495.1 28.5999 493.8 28.3999 492.5 28.2999C488.3 27.9999 484.2 28.4999 480.2 29.9999C469.3 34.1999 461.2 41.4999 455.9 51.8999C455.2 53.1999 454.9 54.7999 453.3 55.3999C449.2 56.8999 445.3 58.7999 441.2 60.0999C436.9 61.4999 434.6 60.0999 433.1 55.7999C431.9 52.3999 431.5 48.6999 430.9 45.0999C429.7 37.8999 425.8 35.0999 418.6 36.5999C415.4 37.1999 412.6 38.5999 410.1 40.6999C406.5 43.6999 403.1 46.8999 399.5 49.8999C397.6 51.4999 396.1 53.7999 392.8 54.7999C392.8 49.8999 392.8 45.3999 392.8 40.8999C392.8 38.9999 392.6 37.0999 390.4 36.4999C388.5 35.9999 386.3 35.5999 384.9 37.4999C383.7 39.1999 381.9 41.2999 383.2 43.2999C385.6 46.7999 384 50.3999 384.5 53.8999C384.8 55.3999 384 56.2999 382.5 56.7999C377.6 58.4999 372.8 60.5999 367.9 61.9999C363 63.3999 361.1 61.6999 360.6 56.6999C360 50.3999 361.5 44.4999 364 38.7999C364.9 36.7999 365.3 34.8999 363.1 33.5999C360.9 32.2999 358.6 31.9999 356.6 33.8999C355 35.3999 353.5 37.2999 353.6 39.4999C353.8 42.0999 352.9 44.3999 352.4 46.7999C351.6 50.6999 351.4 54.6999 351.7 58.6999C352.4 68.5999 357.8 72.6999 367.5 70.7999C371.6 69.9999 375.6 68.5999 379.5 67.2999C381.1 66.7999 382.5 65.7999 384.6 66.3999C384.5 69.0999 385.6 71.0999 388.6 71.5999C391.7 71.9999 393 69.9999 394.4 67.7999C399.9 59.1999 408.6 53.7999 416 47.1999C416.3 46.9999 416.6 46.7999 416.9 46.6999C420.6 44.8999 422.1 45.6999 422.7 49.6999C423.1 52.4999 423.4 55.2999 424.3 57.9999C427.8 68.4999 435.1 71.9999 445.4 67.8999C448.4 66.6999 451.3 65.4999 454.1 64.2999C458.4 68.9999 461.9 70.0999 467 67.9999C469.5 66.9999 471.7 65.4999 474.1 64.2999C477 62.7999 479.7 60.6999 483.4 60.1999C485.1 63.6999 484.8 67.0999 485.4 70.5999C485.7 72.4999 484.6 73.0999 483.1 73.7999C479.3 75.5999 475.5 77.3999 471.9 79.3999C466.3 82.4999 461.1 86.0999 457.7 91.6999C452.8 99.5999 456.4 108.1 465.5 110.1C470 111.1 474.3 110.4 478.3 107.6C486.6 101.7 491.6 93.5999 493.2 83.6999C493.9 79.0999 496.2 77.5999 500.2 76.3999C524.6 69.3999 549.7 66.0999 574.9 63.5999C601.1 60.9999 627.4 59.7999 653.7 58.6999C656.6 58.5999 659.3 58.0999 659.3 54.4999C659.3 50.8999 656.8 50.1999 653.8 50.3999ZM471.4 101.2C469 102.7 466.4 102.1 464.6 100.1C462.7 97.9999 464.4 95.9999 465.8 94.3999C470.5 88.7999 476.9 85.5999 484.3 82.1999C482.4 91.0999 478.2 97.0999 471.4 101.2Z" fill="white"/>
	<path d="M170.5 32.3C169.1 29.3 164.5 28.8 162.2 30.7C160 32.6 160.2 35 162.7 38.2C164.8 40.8 167 43.3 168.8 46.1C171.8 50.8 170.9 55 166.5 58.4C164.1 60.3 161.3 61.5 158.5 62.5C146.4 66.9 140.8 64.1 137.6 52.8C136.1 47.3 133 46.6 128.5 50.3C124.6 53.5 120.8 56.7 116.9 59.8C114.8 61.4 112.5 62.7 109.6 62.6C107.2 62.6 105.8 61.4 105.3 59.2C104.2 54.8 107.7 47.7 111.7 45.8C113.4 45 115 44.1 116.5 43.1C118.2 41.9 118.5 40.1 118 38.2C117.4 36.4 116 35.6 114.2 35.4C111 35 108.2 35.9 105.8 37.9C104 39.5 101.9 40.1 99.5 40.5C94.6 41.4 89.6 41.6 84.6 41.2C78.5 41.4 72.6 40.5 66.9 38.2C64 37 61 36.6 58 38.3C58.8 43 62.2 45.3 66.5 46.7C69.4 47.7 72.5 48.4 75.5 49.3C79.3 49 83 49.8 86.8 50.1C90.5 49.8 94.2 49.2 98.3 49.7C97.2 52.5 96.9 55.1 96.8 57.8C96.5 66.4 101.7 71.5 110.3 71.2C114.7 71.1 118.2 69 121.7 66.6C124.8 64.5 127.3 61.5 130.6 60.1C132.2 60.8 132.3 62.1 132.8 63.1C136 69.4 141.1 72.6 148 72.8C157.9 73.1 166.7 69.8 174.1 63.3C179.9 58.2 180.9 51.3 177.7 44.2C175.7 40 172.5 36.5 170.5 32.3Z" fill="white"/>
	<path d="M343 65.1C331.5 62 321.7 55.7 312.2 49C310.4 47.7 307.5 46.7 307.9 44C308.3 41.3 311.3 40.9999 313.4 40.2999C321.1 37.6999 329 35.5999 337.3 36.3999C339.3 36.5999 340.9 36 341.7 34C342.3 32.4 342.2 30.7999 340.9 29.3999C339.7 28.0999 337.9 28.1 336.3 28C326.8 27.4 317.8 29.4 308.9 32.5C307.7 33 306.6 33.9999 305.2 32.7999C305.2 32.1999 305 31.4999 305.2 30.8999C308.2 22.9999 310.8 14.9 315.9 7.99995C317.4 5.89995 317.7 3.49995 315.4 1.79995C313.1 0.0999547 310.7 0.499955 308.8 2.79995C306.3 5.69995 304.3 8.99995 302.7 12.5C295 28.9 293.2 46.3 293.9 64.1C294 67 295.4 68.5 298.2 68.5C300.8 68.5 302 66.7999 302.1 64.2999C302.3 60.6999 302 57.0999 303 52.7999C312.4 60.5999 322.1 66.3 332.6 70.7C335.3 71.8 338.1 72.8999 341.1 73.3999C343.8 73.8999 345.8 72.8 346.4 70.1C347.1 67.3 345.7 65.8 343 65.1Z" fill="white"/>
	<path d="M230.8 38.0999C223.3 38.9999 217.4 34.0999 210.3 33.3999C206.5 32.9999 203.2 32.4999 199.9 34.4999C189.7 40.6999 185.2 50.0999 185.3 61.6999C185.4 69.7999 190.6 74.5999 198.6 75.0999C209.9 75.7999 219.5 72.2999 227.3 63.8999C231.9 58.9999 234 53.7999 231.1 46.7999C236.5 45.8999 237.5 45.0999 237.4 42.0999C237.3 39.1999 235.3 37.5999 230.8 38.0999ZM222.6 56.0999C217.4 62.7999 210.9 66.8999 202.2 66.7999C196.1 66.7999 193.5 63.5999 194.4 57.4999C195.4 51.0999 198.3 45.9999 204.3 42.4999C207.1 47.6999 211.9 46.4999 216.2 46.4999C218.8 46.4999 221.2 46.4999 222.7 49.0999C224.1 51.4999 224.4 53.7999 222.6 56.0999Z" fill="white"/>
	<path d="M284.1 35.7C280.4 34.1 276.6 34.7999 272.9 35.7999C265.1 37.9999 258.1 41.5999 251.1 46.3999C250.7 42.9999 251.2 40.0999 251.8 36.9999C252.3 34.7999 251.2 33.5 249.3 32.7C247.4 31.9 245.5 32.0999 244.4 33.7999C243.2 35.5999 241.9 37.5 241.9 39.7C241.9 46.7 242 53.5999 242 60.5999C242 63.4999 242.5 66.1999 245.9 66.5999C249.4 66.9999 250.5 64.4999 250.8 61.5999C251.3 57.4999 253.5 54.5999 256.9 52.3999C262.5 48.7999 268.4 45.7999 274.9 43.9999C277 43.4999 279 43.0999 281.2 44.0999C284 45.3999 286.1 44.5999 287.1 41.5999C288 38.7999 286.9 36.8 284.1 35.7Z" fill="white"/>
	<path d="M369.5 20.4C373.5 20.4 376.5 17.6 376.5 13.6C376.5 9.79998 373.9 7.19998 369.9 7.09998C365.7 6.99998 362.9 9.69997 362.9 13.8C363 17.6 365.7 20.3 369.5 20.4Z" fill="white"/>
</svg>
