<svg viewBox="0 0 83 83" fill="none" xmlns="http://www.w3.org/2000/svg">
	<path d="M32.8 65.5L32.6 65.9H36L35.8 65.5C35.4 64.6 34.8 63.4 34.3 62C33.7 63.5 33.2 64.6 32.8 65.5Z" fill="white"/>
	<path d="M0.699951 5.80002V77.2C14.1 80.8 27.9 82.6 41.8 82.6C55.7 82.6 69.4999 80.8 82.8999 77.2V5.80002C55.9999 -1.39998 27.6 -1.39998 0.699951 5.80002ZM50.3 29.7C50.3 34.2 46.6 37.9 42.1 37.9C37.5 37.9 33.8999 34.2 33.8999 29.7C33.8999 25.2 37.6 21.5 42.1 21.5C46.6 21.4 50.3 25.1 50.3 29.7ZM25.3999 70.7H21.8V65.8C21.8 65 21.8 64 21.8 63.2C21.3 63.8 20.8 64.3 20.3 64.8L18.3 66.7H18L16 64.8C15.5 64.3 15 63.8 14.5 63.2C14.5 64.1 14.5 65 14.5 65.8V70.7H11V55.7H11.5L15.3999 59.2C15.9999 59.8 17.3 61 18.2 62C19.1 61.1 20.4 59.7 21.1 59.2L24.8999 55.7H25.3999V70.7V70.7ZM38.3 70.7L37.3999 68.7H31.2L30.3 70.7H26.3L33.8999 55.7H34.7L42.3 70.7H38.3ZM50 71.2C45.9 71.3 42.4999 68.1 42.3999 64.1C42.3999 63.9 42.3999 63.7 42.3999 63.5C42.1999 59.5 45.2 56 49.3 55.8C49.5 55.8 49.6999 55.8 49.8999 55.8C51.7999 55.8 53.7 56.5 55.1 57.7L53.1 60.3C52.3 59.5 51.2 59.1 50.1 59.1C47.7 59.1 46.2 61 46.2 63.5C46.2 66 47.7 67.9 50.1 67.9C51.2 67.9 52.3 67.5 53.1 66.7L55.1 69.3C53.7 70.5 51.8 71.2 50 71.2ZM60.5 70.7H56.8V56.1H60.5V70.7ZM43.2 49C32.6 49.6 23.4 41.4 22.8 30.8C22.2 20.2 30.4 11 41 10.4C41.6 10.4 42.1 10.9 42.1 11.5V16.2C42.1 16.8 41.6 17.3 41 17.3C34.9 17.8 30 22.8 29.6 28.9C29.2 35.8 34.4 41.7 41.2 42.1C48.1 42.5 53.9999 37.3 54.3999 30.5C54.4999 30.1 54.9 29.7 55.3 29.7H60.3999C60.8999 29.8 61.3 30.2 61.3 30.7C60.8 40.6 53 48.4 43.2 49ZM73.6 59.4H67.2V62.8H72.8V65.9H67.2V70.7H63.5V56.1H74.3L73.6 59.4Z" fill="white"/>
</svg>
